<svg version="1.2" xmlns="http://www.w3.org/2000/svg" viewBox="0 0 1024 1024" width="1024" height="1024">
	<style>
		
	</style>
	<path id="s" class="s0" d="m216.47 468.23c0 101.56 90.37 131.1 203.01 126.09 76.74-3.01 162.16-19.4 162.16 17.71 0 21-19.81 40.91-64.37 49.46-42.71 8.2-71.8-6.73-73.65-30.3l-242.62 46.55c0 93.26 99.65 148.36 303.89 109.17 211.05-40.49 318.12-132.81 318.12-243.65 0-87.4-65.6-123.64-186.91-115.51-66.84 4.53-183.82 22.09-183.82-18.44 0-19.53 17.33-40.43 62.51-49.1 41.47-7.96 63.75 8.76 68.08 29.91l215.39-41.33c0-113.77-121.93-141.65-281.61-111.01-161.54 31-300.18 103.99-300.18 230.45z"/>
</svg>