<svg version="1.2" xmlns="http://www.w3.org/2000/svg" viewBox="0 0 4096 1024" width="4096" height="1024">
	<style>
		.s0 { fill: #5757d7 } 
		.s1 { fill: #fcfcfc } 
	</style>
	<path id="Forme 1" fill-rule="evenodd" class="s0" d="m4095.93 0v1024h-4095.93v-1024z"/>
	<path id="Synapsis" class="s1" aria-label="Synapsis"  d="m291.3 572.3c-1.2 5.1-1.6 9.4-1.6 16.4 0 121.5 118.7 161.8 221.5 161.8 129.6 0 237.5-64.4 237.5-183.9 0-89.9-61.3-124.7-119.9-140.7l-63.6-18.4c-38.7-10.5-60.6-24.6-60.6-46.5 0-22.2 21.5-41 58.2-41 32.5 0 66.8 14.9 66.8 49.3 0 2.3 0 4.7-0.4 6.2l145.7 0.1c0.8-3.9 1.6-7.9 1.6-16.1 0-84.3-77.3-159-212.9-159-125.7 0-226.1 64-226.2 183.5 0 86.8 53.5 125.5 119.9 145l60.9 19.2c36.8 10.9 64.1 19.1 64.1 44.5 0 31.6-41 39.4-65.6 39.4-37.1 0-75-17.9-75-53.1 0-3.5 0.4-5.1 0.8-6.6zm973.8-251.4h-166l-98.1 299.2h-6.2l-14-299.2-158.6-0.1 55.7 412.1-9.7 23.1c-4.3 10.1-18.8 20.7-56.3 20.7-14.4 0-26.9-1.6-39.8-4.3l-20.4 110.9c19.2 3.1 45.7 6.3 78.9 6.3 118.4 0 178.9-40.2 232.5-138.3 2.3-4.6 6.2-10.1 10.1-18.7zm-19.2 421.1h159.4l41.1-233.6c9.3-53.9 28.5-73.8 60.1-73.8 17.6 0 41.8 12.5 41.8 46.9 0 7.4-0.8 23.4-2.7 34.8l-39.1 225.7 158.9 0.1 38.8-218.8c3.9-21.4 9.7-54.6 9.7-83.9 0.1-76.2-49.9-124.3-125.3-124.3-64.5 0-99.2 34.4-116 66.4h-7.9l11-60.6h-155.9zm628.2 6c56.6 0 89-28.5 103.1-57.4h7.4l-9.8 51.6h146.9l45.4-256.2c1.6-9.8 2.3-20.3 2.3-25 0.1-99.6-74.9-146.1-181.2-146.2-132 0-187.5 72.7-194.5 138.3h147.2c3.2-18.3 18-29.3 37.9-29.3 19.9 0 37.5 11.4 37.5 30.9 0 2.7-0.4 6.2-0.8 8.6l-5.4 30.8h-85.6c-94.5 0-173.8 39-173.8 133.2-0.1 77.3 53.4 120.7 123.4 120.7zm33.6-141.4c0-21.9 18-35.9 45.7-35.9h43.7l-7 39.8c-3.9 20-23.8 32.5-43.4 32.5-20.7 0-39-13.7-39-36.4zm590.2 139.2c90.2 0 150.8-63.6 171.9-185.9l3.9-21.5c3.5-20.7 5.9-44.5 5.9-64.8 0-96.1-49.6-155.9-129.3-155.9-54.7 0-98.4 32-118.7 86.7h-7.8l15.2-83.2h-160.9l-98.6 560.9h159.4l38.7-214h5.9c9.7 50 52.3 77.7 114.4 77.7zm-100.8-178.5c0.1-7.8 1.2-20.3 2.8-29.3l3.9-21.5c8.6-49.6 31.3-77.3 63.7-77.3 26.9 0 44.5 21.1 44.5 53.5 0 10.9-1.2 28.5-2.3 35.2l-4 21.1c-9.3 50.7-30.8 77.3-62.9 77.3-28.1 0-45.7-22.7-45.7-59zm351.2-112.4c0 85.5 71.9 112.9 125 128.9 43.4 13.3 70.3 19.6 70.3 39.1 0 15.6-16.8 27.7-44.9 27.7-28.1 0-51.6-12.1-51.6-39.8 0-3.2 0-8.2 0.4-9l-137.9-0.1c-0.7 4.7-1.1 12.5-1.1 18.8-0.1 98 103.4 130.1 188.2 130.1 98.8 0 203.9-43.7 204-142.5 0-64.1-43.4-100.4-105.1-119.6-49.6-15.2-98.4-17.2-98.4-46.5 0-15.6 13.3-28.9 40.6-28.9 28.9 0 46.9 14.5 46.9 31.3 0 1.9 0 7-0.4 9h134c0.8-3.1 1.1-11.3 1.1-16.8 0.1-77.7-80.4-123.5-185.9-123.5-123.8 0-185.1 62.5-185.2 141.8zm480.6-246c0 40.2 30.4 68 85.9 68 56.6 0 94.5-28.5 94.5-73.8 0.1-39.9-29.6-68.4-85.9-68.4-56.6 0-94.5 28.9-94.5 74.2zm-84.1 533.6h158.6l75.1-421.1h-158.6zm290.7-287.4c-0.1 85.5 71.8 112.9 124.9 128.9 43.4 13.3 70.3 19.5 70.3 39.1 0 15.6-16.8 27.7-44.9 27.7-28.1 0-51.6-12.1-51.6-39.9 0.1-3.1 0.1-8.2 0.4-8.9l-137.8-0.1c-0.8 4.7-1.2 12.5-1.2 18.8 0 98 103.5 130.1 188.2 130.1 98.9 0 203.9-43.7 204-142.5 0-64.1-43.4-100.4-105.1-119.6-49.6-15.2-98.4-17.2-98.4-46.5 0-15.6 13.3-28.9 40.6-28.9 28.9 0 46.9 14.5 46.9 31.3 0 1.9 0 7-0.4 9h134c0.8-3.1 1.2-11.3 1.2-16.8 0-77.7-80.5-123.5-186-123.5-123.8 0-185.1 62.5-185.1 141.8z"/>
</svg>